<svg xmlns="http://www.w3.org/2000/svg"
     version="1.0"
     viewBox="0 0 980 980"
     fill="#0051fe">

  <path fill-opacity=".2" d="M378.8 276.7c.6.2 1.8.2 2.5 0 .6-.3.1-.5-1.3-.5s-1.9.2-1.2.5m272 0c.7.3 1.6.2 1.9-.1.4-.3-.2-.6-1.3-.5-1.1 0-1.4.3-.6.6M276.2 380c0 1.4.2 1.9.5 1.2.2-.6.2-1.8 0-2.5-.3-.6-.5-.1-.5 1.3m0 220c0 1.4.2 1.9.5 1.2.2-.6.2-1.8 0-2.5-.3-.6-.5-.1-.5 1.3m426.9-.4c0 1.1.3 1.4.6.6.3-.7.2-1.6-.1-1.9-.3-.4-.6.2-.5 1.3M378.8 703.7c.6.2 1.8.2 2.5 0 .6-.3.1-.5-1.3-.5s-1.9.2-1.2.5m220 0c.6.2 1.8.2 2.5 0 .6-.3.1-.5-1.3-.5s-1.9.2-1.2.5"/>

  <path fill-opacity=".3" d="M419.2 276.7c20.7.2 54.9.2 76 0 21.1-.1 4.1-.2-37.7-.2s-59 .1-38.3.2m-.4 43c21 .2 55.4.2 76.5 0 21-.1 3.8-.2-38.3-.2s-59.3.1-38.2.2M319.5 490c0 60.2.1 84.9.2 54.7.2-30.1.2-79.3 0-109.5-.1-30.1-.2-5.4-.2 54.8m-43 0c0 59.7.1 84.1.2 54.2.2-29.8.2-78.6 0-108.5-.1-29.8-.2-5.4-.2 54.3m384 33c0 42.1.1 59.3.2 38.3.2-21.1.2-55.5 0-76.5-.1-21.1-.2-3.9-.2 38.2m43-.5c0 41.8.1 58.8.2 37.7.2-21.1.2-55.3 0-76-.1-20.7-.2-3.5-.2 38.3M435.7 660.7c29.9.2 78.7.2 108.5 0 29.9-.1 5.5-.2-54.2-.2s-84.1.1-54.3.2m0 43c29.9.2 78.7.2 108.5 0 29.9-.1 5.5-.2-54.2-.2s-84.1.1-54.3.2"/>

  <path fill-opacity=".4" d="m545 363.7-72.5 72.8 72.8-72.5c40-39.9 72.7-72.6 72.7-72.7q0-.3-.3-.3c-.1 0-32.8 32.7-72.7 72.7m71 71-72.5 72.8 72.8-72.5c40-39.9 72.7-72.6 72.7-72.7q0-.3-.3-.3c-.1 0-32.8 32.7-72.7 72.7m-236.2 226c.7.3 1.6.2 1.9-.1.4-.3-.2-.6-1.3-.5-1.1 0-1.4.3-.6.6m219 0c.7.3 1.6.2 1.9-.1.4-.3-.2-.6-1.3-.5-1.1 0-1.4.3-.6.6"/>

  <path fill-opacity=".5" d="m307.4 308.2-1.9 2.3 2.3-1.9c2.1-1.8 2.7-2.6 1.9-2.6-.2 0-1.2 1-2.3 2.2m139.7 203.4c0 1.1.3 1.4.6.6.3-.7.2-1.6-.1-1.9-.3-.4-.6.2-.5 1.3M307.5 672c1 1.1 2 2 2.3 2s-.3-.9-1.3-2-2-2-2.3-2 .3.9 1.3 2m363.9.2-1.9 2.3 2.3-1.9c2.1-1.8 2.7-2.6 1.9-2.6-.2 0-1.2 1-2.3 2.2"/>

  <path fill-opacity=".9" d="M546.5 283c1 1.1 2 2 2.3 2s-.3-.9-1.3-2-2-2-2.3-2 .3.9 1.3 2m73.4 6.7c-1.3 1.6-1.2 1.7.4.4.9-.7 1.7-1.5 1.7-1.7 0-.8-.8-.3-2.1 1.3m-66.7 8.3c0 1.4.2 1.9.5 1.2.2-.6.2-1.8 0-2.5-.3-.6-.5-.1-.5 1.3m-240.3 5.7c-1.3 1.6-1.2 1.7.4.4.9-.7 1.7-1.5 1.7-1.7 0-.8-.8-.3-2.1 1.3m233.5 9.5-1.9 2.3 2.3-1.9c2.1-1.8 2.7-2.6 1.9-2.6-.2 0-1.2 1-2.3 2.2m-243.5.5c-1.3 1.6-1.2 1.7.4.4.9-.7 1.7-1.5 1.7-1.7 0-.8-.8-.3-2.1 1.3m386.5 46.5-1.9 2.3 2.3-1.9c2.1-1.8 2.7-2.6 1.9-2.6-.2 0-1.2 1-2.3 2.2m-8.6 66.5c.6.2 1.8.2 2.5 0 .6-.3.1-.5-1.3-.5s-1.9.2-1.2.5m-14.4 6.5-1.9 2.3 2.3-1.9c2.1-1.8 2.7-2.6 1.9-2.6-.2 0-1.2 1-2.3 2.2m30.1-.2c1 1.1 2 2 2.3 2s-.3-.9-1.3-2-2-2-2.3-2 .3.9 1.3 2M302 665.4c0 .2.8 1 1.8 1.7 1.5 1.3 1.6 1.2.3-.4s-2.1-2.1-2.1-1.3m373.9 1.3c-1.3 1.6-1.2 1.7.4.4s2.1-2.1 1.3-2.1c-.2 0-1 .8-1.7 1.7M312 675.4c0 .2.8 1 1.8 1.7 1.5 1.3 1.6 1.2.3-.4s-2.1-2.1-2.1-1.3m353.9 1.3c-1.3 1.6-1.2 1.7.4.4.9-.7 1.7-1.5 1.7-1.7 0-.8-.8-.3-2.1 1.3"/>

  <g stroke-width="0">
    <path d="M374 277.5c-.8.2-4.9.9-9 1.5-42.6 7-77.3 41.4-86.1 85.5-2 10-2.1 241.9-.1 251 3.6 16.4 9.4 29.9 18.2 42.4 15.7 22.2 38.8 37 67.5 43.3 8.6 1.9 240.8 1.9 250.7 0 37.6-7.1 69.3-34.3 81.5-69.7 5.8-17 5.6-13.1 6-102.7.3-58.2.1-83.9-.7-86.8-1.3-4.9-6.7-11.1-11.4-13.4-3.8-1.8-12.1-2.1-15.9-.7-3.5 1.3-9.5 6.8-11.5 10.5-1.5 2.8-1.7 10.5-2.2 87.1l-.5 84-2.8 7.8c-7.4 21-24 36.3-45.3 41.7-7.5 1.9-11.5 2-122.4 2s-114.9-.1-122.4-2c-21-5.4-37.1-19.9-45.2-41l-2.9-7.5v-241l2.9-7.5q10.95-28.65 39.6-39.6l7.5-2.9 84.5-.5c77-.5 84.8-.6 87.6-2.2 3.7-2 9.2-8 10.5-11.5 1.4-3.8 1.1-12.1-.7-15.9-2.2-4.6-8.5-10-13.1-11.3-2.5-.7-30-1.1-83.3-1-43.7.1-80.2.3-81 .4"/>
    <path d="M644.5 278c-6.3 1.3-12.5 3.8-18 7.2-5 3.2-145.2 141.9-152.5 151.1-3.3 4.1-5.4 9.3-15 38.4-9.7 28.9-11.2 34.3-10.8 38.4.9 9.4 9.3 17.8 18.7 18.7 4.1.4 9.5-1.1 38.4-10.8 29-9.6 34.4-11.7 38.4-15 9.2-7.3 147.9-147.5 151.1-152.6 12.5-20 9.7-44.8-6.8-61.4-11.5-11.5-28.7-17-43.5-14"/>
  </g>

</svg>